/* XPM */
static char *protagonist_xpm[] = {
/* columns rows colors chars-per-pixel */
"32 32 5 1",
"  c None",
". c #707070", /* Color principal para el cuerpo */
"X c #FF6347", /* Color secundario para detalles */
"o c #0000FF", /* Color para los ojos */
"O c #F08080", /* Color para las mejillas */
/* pixels */
"................................",
"................................",
"................................",
"..............XXX...............",
".............XXXXX..............",
"............XXXXXXX.............",
"...........XXXXXXXXX............",
"..........XXXXXXXXXXX...........",
".........XXX..XXX..XXX..........",
"........XXXXXXXXXXXXXXX.........",
".......XXXXXXXXXXXXXXXXX........",
"......XXXXXXXXXXXXXXXXXXX.......",
".....XXXXXXXXXXXXXXXXXXXXX......",
".....XXXXXXXXXXXXXXXXXXXXX......",
".....XXXXXXXXXXXXXXXXXXXXX......",
"......XXXXXXXX.X.XXXXXXXX.......",
".......XXXXXX...X.XXXXXX........",
"........XXXX...X...XXXX.........",
".........XX....X....XX..........",
"................X...............",
"...............XXX..............",
"...............XXX..............",
"..............XXXXX.............",
".............XXXXXXX............",
"............XXX...XXX...........",
"............XX.....XX...........",
"............XX.....XX...........",
"...........XXX....XXX...........",
"...........XXX....XXX...........",
"................................",
"................................",
"................................"
};
